<?xml version="1.0" encoding="utf-8"?>
<!-- Generator: Adobe Illustrator 24.3.0, SVG Export Plug-In . SVG Version: 6.00 Build 0)  -->
<svg
    id="Calque_1"
    xmlns="http://www.w3.org/2000/svg"
    xmlnsXlink="http://www.w3.org/1999/xlink"
    x="0px"
    y="0px"
    viewBox="0 0 512 512"
    style={{
      enableBackground: "new 0 0 512 512",
    }}
    xmlSpace="preserve"
    {...props}
  >
    <style type="text/css">
      {"\n\t.st0{stroke:#000000;stroke-miterlimit:10;}\n"}
    </style>
    <g>
      <path
        className="st0"
        d="M106.67,495.37H67.92c-8.61,0-15.59-6.98-15.59-15.59v-258.1c0-8.61,6.98-15.59,15.59-15.59h53.17v274.87 C121.09,488.92,114.64,495.37,106.67,495.37z"
      />
      <path
        className="st0"
        d="M261.99,174.02c-0.17,0.29-0.32,0.6-0.46,0.91l-8.23,19.03c-2.48,5.73,1.73,12.13,7.97,12.13l132.96-0.72 c45.7,0,77.31,45.69,61.18,88.46l-56.79,150.6c-11.56,30.66-40.9,50.95-73.67,50.95H139.26c-4.8,0-8.68-3.89-8.68-8.68V208.28 c0-1.89,0.62-3.73,1.75-5.23l72.24-99.91c1.11-1.53,2.35-2.96,3.71-4.28l79.64-76.89c5.74-4,12.27-5.65,18.59-5.28 c16.7,0.97,27.01,18.72,19.99,33.9L261.99,174.02z"
      />
    </g>
  </svg>
