<?xml version="1.0" encoding="utf-8"?>
<!-- Generator: Adobe Illustrator 24.3.0, SVG Export Plug-In . SVG Version: 6.00 Build 0)  -->
<svg version="1.1" id="Calque_1" xmlns="http://www.w3.org/2000/svg" xmlns:xlink="http://www.w3.org/1999/xlink" x="0px" y="0px"
	 viewBox="0 0 512 512" style="enable-background:new 0 0 512 512;" xml:space="preserve">
<style type="text/css">
	.st0{stroke:#000000;stroke-miterlimit:10;}
</style>
<g>
	<path class="st0" d="M405.33,16.63h38.75c8.61,0,15.59,6.98,15.59,15.59v258.1c0,8.61-6.98,15.59-15.59,15.59h-53.17V31.05
		C390.91,23.08,397.36,16.63,405.33,16.63z"/>
	<path class="st0" d="M250.01,337.98c0.17-0.29,0.32-0.6,0.46-0.91l8.23-19.03c2.48-5.73-1.73-12.13-7.97-12.13l-132.96,0.72
		c-45.7,0-77.31-45.69-61.18-88.46l56.79-150.6c11.56-30.66,40.9-50.95,73.67-50.95h185.69c4.8,0,8.68,3.89,8.68,8.68v278.41
		c0,1.89-0.62,3.73-1.75,5.23l-72.24,99.91c-1.11,1.53-2.35,2.96-3.71,4.28l-79.64,76.89c-5.74,4-12.27,5.65-18.59,5.28
		c-16.7-0.97-27.01-18.72-19.99-33.9L250.01,337.98z"/>
</g>
</svg>
